<?xml version="1.0" encoding="UTF-8" standalone="no"?>
<!DOCTYPE svg PUBLIC "-//W3C//DTD SVG 1.1//EN" "http://www.w3.org/Graphics/SVG/1.1/DTD/svg11.dtd">
<svg width="100%" height="100%" viewBox="0 0 118 124" version="1.1" xmlns="http://www.w3.org/2000/svg" xmlns:xlink="http://www.w3.org/1999/xlink" xml:space="preserve" xmlns:serif="http://www.serif.com/" style="fill-rule:evenodd;clip-rule:evenodd;stroke-linejoin:round;stroke-miterlimit:2;">
    <path d="M71.325,118.709C68.546,116.903 61.183,110.372 68.546,100.091C75.91,89.809 69.519,84.469 65.351,79.944C61.183,75.42 65.351,73.831 69.519,72.58C73.677,71.333 84.108,69.663 87.026,65.216C89.943,60.77 84.247,55.722 87.026,52.573C89.804,49.423 100.358,45.741 103.699,46.32C107.039,46.899 107.067,56.046 107.067,56.046C107.067,56.046 108.569,62.38 110.09,65.216C111.821,68.445 116.875,72.965 117.454,75.42C117.91,77.356 113.563,79.944 113.563,79.944C113.563,79.944 115.092,81.913 115.092,82.584C115.092,83.256 113.563,83.973 113.563,83.973C113.563,83.973 115.092,86.243 115.092,86.891C115.092,87.495 113.563,87.864 113.563,87.864C113.563,87.864 115.246,92.887 113.563,94.116C111.757,95.436 105.935,94.033 102.726,95.783C94.829,100.091 92.259,118.778 87.026,122.599C82.671,125.778 76.351,121.975 71.325,118.709Z"/>
    <path d="M99.165,61.122C102.19,60.225 104.622,60.145 104.972,61.324C105.321,62.503 106.307,63.469 103.282,64.366C100.257,65.263 93.621,66.023 93.271,64.844C92.921,63.665 96.14,62.019 99.165,61.122Z" style="fill:white;"/>
    <path d="M57.265,67.551C63.065,72.119 77.874,64.911 81.718,61.438C84.753,58.696 80.21,52.767 82.83,49.628C85.748,46.131 100.254,43.277 98.391,37.957C95.821,30.616 77.735,3.576 66.574,0.581C60.366,-1.084 51.179,0.962 43.041,5.027C36.548,8.271 21.705,11.07 21.14,15.869C19.867,26.683 49.021,61.059 57.265,67.551Z" style="fill:rgb(2,166,84);"/>
    <path d="M16.832,27.505C18.728,28.578 20.107,32.782 23.127,37.534C25.38,41.008 30.451,47 31.028,49.426C31.428,51.104 28.292,52.381 26.593,52.088C23.529,51.561 15.794,46.253 12.649,46.26C12.649,46.26 19.925,54.245 20.499,56.466C20.949,58.208 17.656,60.474 16.091,59.585C14.036,58.417 12.065,54.408 8.165,49.457C4.992,45.457 0.222,41.895 0.008,39.41C-0.206,36.925 4.074,34.548 6.88,34.548C9.892,34.548 18.08,39.41 18.08,39.41C17.299,38.306 11.961,33.083 11.753,31.099C11.545,29.115 15.027,26.484 16.832,27.505Z" style="fill-rule:nonzero;"/>
    <path d="M33.396,54.07C36.7,53.885 38.761,61.147 38.928,63.077C39.077,64.809 32.929,66.621 32.028,67.244L34.915,71.817C35.868,71.17 39.92,67.245 41.342,67.244C42.764,67.244 43.99,70.49 43.447,71.815C42.903,73.141 38.734,74.708 38.081,75.198C38.081,75.198 41.852,78.493 41.342,80.039C40.832,81.585 37.397,85.466 35.023,84.473C32.634,83.474 27.005,74.041 27.005,74.041C25.188,71.629 18.039,67.511 19.104,64.183C20.169,60.854 30.092,54.254 33.396,54.07Z" style="fill-rule:nonzero;"/>
    <path d="M51.485,77.847C54.972,77.362 57.181,84.73 57.181,86.738C57.181,88.747 52.591,89.156 51.485,89.897C51.812,90.474 52.636,91.842 53.959,94.002C55.272,96.072 59.467,101.042 59.694,103.153C59.895,105.011 57.031,107.43 55.325,106.668C53.503,105.853 51.76,102.075 48.763,98.265C47.703,96.961 46.661,95.692 45.637,94.458C45.637,94.458 42.755,99.026 40.891,98.265C39.027,97.505 32.835,93.02 34.456,89.897C36.221,86.494 47.698,78.373 51.485,77.847Z" style="fill-rule:nonzero;"/>
</svg>
