<?xml version="1.0" encoding="UTF-8" standalone="no"?>
<!DOCTYPE svg PUBLIC "-//W3C//DTD SVG 1.1//EN" "http://www.w3.org/Graphics/SVG/1.1/DTD/svg11.dtd">
<svg width="100%" height="100%" viewBox="0 0 687 884" version="1.1" xmlns="http://www.w3.org/2000/svg" xmlns:xlink="http://www.w3.org/1999/xlink" xml:space="preserve" xmlns:serif="http://www.serif.com/" style="fill-rule:evenodd;clip-rule:evenodd;stroke-linejoin:round;stroke-miterlimit:2;">
    <path d="M354.291,847.184C334.291,834.184 281.291,787.184 334.291,713.184C387.291,639.184 341.291,600.747 311.291,568.184C281.291,535.621 311.291,524.184 341.291,515.184C371.215,506.207 446.291,494.184 467.291,462.184C488.291,430.184 447.291,393.851 467.291,371.184C487.291,348.518 563.25,322.018 587.291,326.184C611.332,330.351 611.537,396.184 611.537,396.184C611.537,396.184 622.346,441.769 633.291,462.184C645.75,485.424 682.125,517.955 686.291,535.621C689.577,549.554 658.291,568.184 658.291,568.184C658.291,568.184 669.291,582.351 669.291,587.184C669.291,592.018 658.291,597.184 658.291,597.184C658.291,597.184 669.291,613.518 669.291,618.184C669.291,622.53 658.291,625.184 658.291,625.184C658.291,625.184 670.402,661.334 658.291,670.184C645.291,679.684 603.385,669.588 580.291,682.184C523.458,713.184 504.958,847.684 467.291,875.184C435.95,898.067 390.461,870.695 354.291,847.184Z" style="fill:url(#_Linear1);"/>
    <path d="M260.291,486.184C302.039,519.059 408.625,467.184 436.291,442.184C458.128,422.452 425.435,379.782 444.291,357.184C465.291,332.018 569.699,311.474 556.291,273.184C537.791,220.351 407.625,25.74 327.291,4.184C282.61,-7.805 216.488,6.924 157.921,36.184C111.189,59.532 4.359,79.673 0.291,114.215C-8.875,192.049 200.958,439.462 260.291,486.184Z" style="fill:url(#_Linear2);"/>
    <path d="M155.183,202.972C141.334,196.967 91.343,150.47 83.383,153.953C75.424,157.436 109.731,202.85 111.684,214.188C112.72,220.207 98.589,226.992 95.099,221.98C84.72,207.07 46.845,146.095 44.262,128.308C43.429,122.578 52.874,113.741 58.558,115.042C72.893,118.321 123.507,161.502 131.158,157.907C138.809,154.312 105.433,110.337 103.606,99.264C102.611,93.238 116.711,86.452 120.19,91.472C130.668,106.592 160.642,171.401 166.474,189.984C168.192,195.458 159.064,204.655 155.183,202.972Z" style="fill:rgb(2,166,84);fill-rule:nonzero;"/>
    <path d="M223.574,152.07C216.615,154.138 187.4,154.595 181.731,158.072C176.957,161 185.315,169.82 189.56,172.936C193.305,175.644 197.76,176.627 202.928,175.886C208.818,175.041 213.698,168.699 216.932,168.622C219.827,168.554 222.554,173.43 222.333,175.426C222.112,177.421 218.729,178.967 215.607,180.595C211.705,182.703 207.225,184.12 202.166,184.846C194.867,185.893 188.315,184.307 182.51,180.087C176.054,175.445 172.165,168.516 170.844,159.302C169.47,149.726 171.277,141.631 176.266,135.015C180.728,129.101 186.518,125.634 193.637,124.613C201.912,123.426 208.732,124.826 214.098,128.813C219.294,132.641 222.423,138.258 223.485,145.666C223.812,147.943 225.621,151.462 223.574,152.07ZM195.369,133.215C190.779,133.873 187.144,135.907 184.461,139.315C181.902,142.559 177.103,149.667 180.929,150.554C185.697,151.658 208.613,148.353 213.07,145.943C216.363,144.163 210.676,138.505 207.675,136.096C204.385,133.47 200.283,132.51 195.369,133.215Z" style="fill:white;fill-rule:nonzero;"/>
    <path d="M274.231,274.505C267.838,277.946 239.327,284.34 234.485,288.899C230.408,292.738 240.386,299.671 245.177,301.858C249.394,303.747 253.957,303.803 258.865,302.025C264.459,299.999 267.946,292.796 271.097,292.062C273.917,291.406 277.58,295.625 277.77,297.624C277.96,299.623 274.963,301.824 272.237,304.054C268.846,306.913 264.748,309.212 259.943,310.952C253.01,313.463 246.272,313.244 239.73,310.295C232.464,307.064 227.246,301.072 224.076,292.32C220.782,283.224 220.904,274.93 224.441,267.437C227.606,260.739 232.569,256.165 239.33,253.716C247.19,250.87 254.153,250.852 260.218,253.664C266.085,256.354 270.292,261.217 272.84,268.253C273.623,270.415 276.111,273.493 274.231,274.505ZM242.777,261.786C238.418,263.365 235.272,266.096 233.34,269.979C231.495,273.676 228.244,281.612 232.169,281.701C237.063,281.812 258.825,273.911 262.699,270.644C265.561,268.231 258.841,263.85 255.412,262.102C251.657,260.201 247.445,260.095 242.777,261.786Z" style="fill:white;fill-rule:nonzero;"/>
    <path d="M315.544,241.974C313.887,243.524 310.708,240.297 308.432,240.628C304.783,241.158 301.839,243.301 299.599,247.056C297.36,250.812 297.037,255.481 297.271,259.789C297.689,267.456 303.014,287.266 302.104,293.06C301.565,296.486 292.898,297.848 291.808,294.555C288.687,285.132 283.068,246.442 283.379,236.52C283.487,233.054 291.734,233.73 293.674,235.025C295.615,236.32 292.256,244.877 295.02,244.291C297.785,243.705 302.855,232.585 310.261,231.509C312.104,231.242 317.488,229.583 318.368,231.328C319.249,233.072 317.2,240.424 315.544,241.974Z" style="fill:white;fill-rule:nonzero;"/>
    <path d="M253.678,355.827C251.302,371.858 273.86,428.516 274.184,443.918C274.317,450.269 258.308,453.996 255.623,448.239C249.112,434.277 244.08,373.539 235.118,360.148C228.786,350.686 208.036,369.349 201.852,367.891C196.359,366.596 192.853,353.686 198.013,351.401C211.805,345.293 269.533,331.856 284.605,331.245C290.244,331.016 292.861,344.223 288.443,347.735C283.289,351.832 255.423,344.058 253.678,355.827Z" style="fill:rgb(2,166,84);fill-rule:nonzero;"/>
    <path d="M296.607,359.738C298.377,359.481 299.976,359.885 301.403,360.95C302.83,362.015 303.67,363.415 303.922,365.149C304.179,366.919 303.775,368.518 302.71,369.945C301.644,371.372 300.227,372.215 298.456,372.472C296.722,372.724 295.142,372.317 293.714,371.252C292.287,370.186 291.445,368.769 291.188,366.998C290.931,365.228 291.327,363.64 292.377,362.233C293.427,360.827 294.837,359.995 296.607,359.738ZM302.588,440.538C299.677,432.559 297.941,399.207 295.418,391.172C294.614,388.612 288.99,393.581 287.452,392.329C285.915,391.077 283.762,385.278 286.193,383.659C289.027,381.772 301.784,375.466 304.454,381.007C308.903,390.237 313.195,429.12 312.884,439.042C312.775,442.508 303.776,443.795 302.588,440.538Z" style="fill:white;fill-rule:nonzero;"/>
    <path d="M377.943,341.858C379.713,341.601 381.311,342.005 382.739,343.07C384.166,344.135 385.006,345.535 385.258,347.269C385.515,349.039 385.111,350.638 384.045,352.065C382.98,353.493 381.562,354.335 379.792,354.592C378.058,354.844 376.477,354.437 375.05,353.372C373.623,352.306 372.781,350.889 372.523,349.119C372.266,347.348 372.663,345.76 373.713,344.353C374.762,342.947 376.172,342.115 377.943,341.858ZM383.924,422.658C381.013,414.679 379.276,381.327 376.754,373.292C375.95,370.733 370.326,375.702 368.788,374.449C367.251,373.197 365.098,367.398 367.529,365.779C370.363,363.892 383.12,357.586 385.79,363.127C390.239,372.357 394.53,411.24 394.219,421.162C394.111,424.628 385.112,425.915 383.924,422.658Z" style="fill:white;fill-rule:nonzero;"/>
    <path d="M328.732,382.223C327.966,380.094 323.329,384.391 322.013,383.199C320.696,382.007 319.909,376.588 320.832,375.071C321.755,373.554 326.751,376.212 327.552,374.095C328.378,371.909 324.462,364.889 325.789,361.957C327.115,359.025 333.5,354.732 335.51,356.506C337.52,358.28 334.802,370.303 337.847,372.6C340.892,374.896 350.927,369.317 353.779,370.286C356.371,371.167 357.194,376.832 354.959,378.414C352.501,380.154 340.921,375.707 339.028,380.728C337.07,385.918 341.854,403.077 343.215,409.556C343.955,413.081 345.249,417.782 347.191,419.602C349.134,421.422 351.93,422.068 355.579,421.538C358.216,421.155 361.683,417.405 363.47,418.344C365.257,419.284 368.129,425.091 366.301,427.173C364.474,429.255 357.596,430.098 352.503,430.837C347.915,431.504 343.793,430.359 340.136,427.405C336.479,424.45 334.652,419.665 333.517,415.17C331.617,407.639 330.65,387.552 328.732,382.223Z" style="fill:white;fill-rule:nonzero;"/>
    <path d="M159.111,245.866C152.963,251.561 159.168,267.74 166.405,269.925C173.641,272.11 195.724,258.216 202.528,258.975C207.894,259.573 211.358,270.999 207.227,274.476C201.99,278.885 174.75,275.769 171.104,285.427C167.458,295.084 186.015,323.668 185.35,332.422C184.869,338.756 169.99,343.614 167.113,337.951C158.882,321.746 129.873,255.738 135.962,235.191C142.052,214.645 191.55,215.392 203.65,214.673C209.284,214.338 213.185,227.638 208.562,230.876C201.139,236.074 166.138,239.358 159.111,245.866Z" style="fill:rgb(2,166,84);fill-rule:nonzero;"/>
    <path d="M611.161,386.113C611.539,392.191 611.551,396.182 611.551,396.182L611.576,396.286L591.881,439.862L611.73,488.207L625.62,450.755C625.941,449.891 626.604,449.252 627.399,448.937C628.36,451.422 629.34,453.806 630.328,456.033L615.052,497.223C615.002,497.779 614.803,498.312 614.48,498.764L601.357,534.15L659.781,565.427C660.276,565.692 660.671,566.072 660.949,566.515C659.314,567.582 658.306,568.182 658.306,568.182C658.306,568.182 659.063,569.157 660.18,570.683C659.238,571.387 657.935,571.528 656.831,570.937L650.076,567.321L641.22,594.057L658.306,594.057C659.501,594.057 660.54,594.729 661.066,595.716C659.482,596.629 658.306,597.182 658.306,597.182C658.306,597.182 658.99,598.198 660.018,599.796C659.526,600.119 658.938,600.307 658.306,600.307L643.216,600.307L660.788,623.283C661.025,623.593 661.194,623.932 661.299,624.284C659.599,624.87 658.306,625.182 658.306,625.182C658.306,625.182 658.678,626.291 659.225,628.169C658.011,628.542 656.64,628.147 655.824,627.08L637.029,602.505L583.382,680.681C582.322,681.143 581.297,681.641 580.306,682.182C578.425,683.208 576.585,684.347 574.785,685.593C574.11,684.564 574.082,683.187 574.821,682.11L604.117,639.42L613.445,547.711L599.054,540.007L510.08,711.62C509.286,713.151 507.399,713.75 505.867,712.956C504.336,712.162 503.738,710.275 504.532,708.743L591.422,541.149L541.332,558.57C540.197,558.965 538.935,558.674 538.088,557.821C537.241,556.967 536.959,555.704 537.362,554.571L574.535,450.134C575.113,448.509 576.902,447.659 578.527,448.238C580.152,448.816 581.001,450.605 580.423,452.23C580.423,452.23 545.436,550.526 545.436,550.526L594.149,533.583L585.369,440.107C585.335,439.765 585.357,439.415 585.44,439.07L585.448,439.038C585.496,438.847 585.562,438.663 585.644,438.487L586.557,436.467L542.227,404.972C540.821,403.974 540.49,402.021 541.489,400.615C542.488,399.209 544.44,398.878 545.846,399.877L589.18,430.663L608.487,387.946C608.983,386.849 610.035,386.177 611.161,386.113ZM611.492,628.672L634.065,595.779L644.484,564.327L619.402,550.9L611.492,628.672ZM599.31,521.695L608.523,496.853L593.551,460.385L599.31,521.695Z" style="fill:rgb(2,166,84);"/>
    <path d="M557.318,432.537C576.936,426.719 592.703,426.203 594.971,433.849C597.239,441.495 603.633,447.758 584.015,453.576C564.398,459.395 521.363,464.322 519.095,456.676C516.827,449.03 537.701,438.356 557.318,432.537Z" style="fill:white;"/>
    <path d="M611.853,396.986C606.05,396.893 599.675,397.136 592.75,397.868C588.076,398.363 583.154,399.049 577.973,399.943C571.086,401.131 563.756,402.7 555.979,404.817C540.051,409.153 522.277,415.596 502.839,425.595C499.87,427.243 496.12,426.17 494.472,423.2C492.824,420.231 493.897,416.481 496.867,414.833C516.02,403.396 533.676,395.327 549.818,389.995C558.473,387.136 566.685,385.028 574.43,383.654C588.192,381.214 600.431,380.802 610.968,381.425C611.632,388.739 611.807,394.575 611.853,396.986Z" style="fill:white;"/>
    <defs>
        <linearGradient id="_Linear1" x1="0" y1="0" x2="1" y2="0" gradientUnits="userSpaceOnUse" gradientTransform="matrix(389,-762.626,1097.8,559.964,124.291,1299.18)"><stop offset="0" style="stop-color:rgb(2,166,84);stop-opacity:1"/><stop offset="1" style="stop-color:black;stop-opacity:1"/></linearGradient>
        <linearGradient id="_Linear2" x1="0" y1="0" x2="1" y2="0" gradientUnits="userSpaceOnUse" gradientTransform="matrix(785,-511.696,455.982,699.528,-379.709,683.88)"><stop offset="0" style="stop-color:rgb(2,166,84);stop-opacity:1"/><stop offset="0.43" style="stop-color:rgb(1,115,58);stop-opacity:1"/><stop offset="1" style="stop-color:black;stop-opacity:1"/></linearGradient>
    </defs>
</svg>
